<svg width="177" height="178" viewBox="0 0 177 178" fill="none" xmlns="http://www.w3.org/2000/svg">
<circle cx="85" cy="93" r="85" fill="#20212C"/>
<circle cx="146" cy="43" r="25" fill="#FFC700"/>
<path d="M46.4318 116V107.909L63.4091 93.0455C64.6818 91.8939 65.7652 90.8409 66.6591 89.8864C67.553 88.9167 68.2348 87.947 68.7045 86.9773C69.1742 85.9924 69.4091 84.9242 69.4091 83.7727C69.4091 82.4848 69.1288 81.3864 68.5682 80.4773C68.0076 79.553 67.2348 78.8409 66.25 78.3409C65.2652 77.8409 64.1364 77.5909 62.8636 77.5909C61.5758 77.5909 60.447 77.8561 59.4773 78.3864C58.5076 78.9015 57.75 79.6515 57.2045 80.6364C56.6742 81.6212 56.4091 82.8182 56.4091 84.2273H45.75C45.75 81.0606 46.4621 78.3258 47.8864 76.0227C49.3106 73.7197 51.3106 71.947 53.8864 70.7045C56.4773 69.447 59.4848 68.8182 62.9091 68.8182C66.4394 68.8182 69.5076 69.4091 72.1136 70.5909C74.7197 71.7727 76.7348 73.4242 78.1591 75.5455C79.5985 77.6515 80.3182 80.0985 80.3182 82.8864C80.3182 84.6591 79.9621 86.4167 79.25 88.1591C78.5379 89.9015 77.2576 91.8258 75.4091 93.9318C73.5758 96.0379 70.9697 98.5606 67.5909 101.5L62.0227 106.636V106.932H80.8864V116H46.4318ZM85.6761 108.273V99.5L104.744 69.4545H112.54V81.3636H108.017L96.858 99.0455V99.4091H124.472V108.273H85.6761ZM108.153 116V105.591L108.381 101.75V69.4545H118.903V116H108.153Z" fill="white"/>
<circle cx="28" cy="155" r="12" fill="#628CDF"/>
</svg>
